<?xml version="1.0" encoding="UTF-8" standalone="no"?>
<svg
   xmlns:dc="http://purl.org/dc/elements/1.1/"
   xmlns:cc="http://creativecommons.org/ns#"
   xmlns:rdf="http://www.w3.org/1999/02/22-rdf-syntax-ns#"
   xmlns:svg="http://www.w3.org/2000/svg"
   xmlns="http://www.w3.org/2000/svg"
   viewBox="0 0 5333.3335 5333.3335"
   height="5333.3335"
   width="5333.3335"
   xml:space="preserve"
   id="svg2"
   version="1.1"><metadata
     id="metadata8"><rdf:RDF><cc:Work
         rdf:about=""><dc:format>image/svg+xml</dc:format><dc:type
           rdf:resource="http://purl.org/dc/dcmitype/StillImage" /></cc:Work></rdf:RDF></metadata><defs
     id="defs6"><clipPath
       id="clipPath28"
       clipPathUnits="userSpaceOnUse"><path
         id="path26"
         d="m 25089.7,6580.7 h -9740 v 10590.7 h 9740 z" /></clipPath><linearGradient
       id="linearGradient40"
       spreadMethod="pad"
       gradientTransform="matrix(-58.4652,9739.84,9739.84,58.4652,20230.5,10079.1)"
       gradientUnits="userSpaceOnUse"
       y2="0"
       x2="1"
       y1="0"
       x1="0"><stop
         id="stop32"
         offset="0"
         style="stop-opacity:1;stop-color:#f4f3f2" /><stop
         id="stop34"
         offset="0.00000022"
         style="stop-opacity:1;stop-color:#f4f3f2" /><stop
         id="stop36"
         offset="0.39270285"
         style="stop-opacity:1;stop-color:#f4f3f2" /><stop
         id="stop38"
         offset="1"
         style="stop-opacity:1;stop-color:#7c7c7c" /></linearGradient><clipPath
       id="clipPath50"
       clipPathUnits="userSpaceOnUse"><path
         id="path48"
         d="M 28531.8,7520.3 V 1434.6 H 13000.5 v 6085.7 z" /></clipPath><linearGradient
       id="linearGradient62"
       spreadMethod="pad"
       gradientTransform="matrix(-19.3061,12612.4,12612.4,19.3061,20773.6,-381.299)"
       gradientUnits="userSpaceOnUse"
       y2="0"
       x2="1"
       y1="0"
       x1="0"><stop
         id="stop54"
         offset="0"
         style="stop-opacity:1;stop-color:#f4f3f2" /><stop
         id="stop56"
         offset="0.00000022"
         style="stop-opacity:1;stop-color:#f4f3f2" /><stop
         id="stop58"
         offset="0.39270285"
         style="stop-opacity:1;stop-color:#f4f3f2" /><stop
         id="stop60"
         offset="1"
         style="stop-opacity:1;stop-color:#7c7c7c" /></linearGradient></defs><g
     transform="matrix(1.3333333,0,0,-1.3333333,0,5333.3333)"
     id="g10"><g
       transform="scale(0.1)"
       id="g12"><g
         transform="scale(2.45399)"
         id="g14"><path
           id="path16"
           style="fill:#dbdbdb;fill-opacity:1;fill-rule:nonzero;stroke:none"
           d="M 16300,0 H 0 V 16300 H 16300 V 0" /></g><g
         transform="scale(2.36598)"
         id="g18"><path
           id="path20"
           style="fill:#7c7c7c;fill-opacity:1;fill-rule:nonzero;stroke:none"
           d="m 5708.68,14142.8 c 0,0 -226.89,1678.9 2453.78,1791.9 135.59,5.7 271.14,-10.8 401.65,-48 429.55,-122.4 1535.19,-355.6 1746.59,413.3 0,0 431.5,-383.5 0,-814.9 0,0 1629.9,-719.1 2061.4,-2205.2 0,0 359.6,-647.2 958.8,-311.6 0,0 -119.9,-815 -886.9,-647.2 0,0 215.8,-1318.3 886.9,-1198.4 0,0 -48,-518.8 -910.8,-7.7 L 11197.6,8486.05 H 5828.54 c 0,0 -1300.01,2119.25 -1342.28,3187.95 -18.93,479.2 -95.85,2301 1222.42,2468.8" /></g><g
         id="g22"><g
           clip-path="url(#clipPath28)"
           id="g24"><g
             transform="scale(1.53925)"
             id="g30"><path
               id="path42"
               style="fill:url(#linearGradient40);fill-opacity:1;fill-rule:nonzero;stroke:none"
               d="M 16300,4275.28 H 9972.22 V 11155.7 H 16300 V 4275.28" /></g></g></g><g
         id="g44"><g
           clip-path="url(#clipPath50)"
           id="g46"><g
             transform="scale(1.75042)"
             id="g52"><path
               id="path64"
               style="fill:url(#linearGradient62);fill-opacity:1;fill-rule:nonzero;stroke:none"
               d="M 16300,4296.29 V 819.577 H 7427.09 V 4296.29 H 16300" /></g></g></g><g
         transform="scale(1.92188)"
         id="g66"><path
           id="path68"
           style="fill:#f4f3f2;fill-opacity:1;fill-rule:nonzero;stroke:none"
           d="m 10480.2,16171.5 c 0,0 826.2,-1682 3157.4,-1859 0,0 737.6,-2655.7 324.5,-3865.6 0,0 332,2891.8 951.7,2725.9 619.6,-166 1062.2,-2235.3 -951.7,-2855 0,0 -188.1,-2201.96 -2666.7,-3242.09 0,0 -641.8,-420.52 -1626.66,0 -984.81,420.48 -2224.12,1206.11 -2556.08,3319.59 0,0 -2334.81,376.2 -1250.39,2744.3 0,0 586.3,460.8 1248.46,-2513.5 l 25.29,-223.4 c 0,0 -428.75,3246.8 424.27,4973.9 241.38,488.7 725.54,810.6 1269.12,849.9 583.54,42 1402.89,73.5 1650.79,-55" /></g><g
         transform="scale(1.40878)"
         id="g70"><path
           id="path72"
           style="fill:#7c7c7c;fill-opacity:1;fill-rule:nonzero;stroke:none"
           d="m 12526.1,6210.98 c 0,0 1220.2,-1007.25 3773.9,0 0,0 -616.2,-2821.09 -1371,-3002.25 -754.7,-181.14 -1316,43.52 -1316,43.52 0,0 -1479.4,1388.79 -1086.9,2958.73" /></g><g
         transform="scale(1.35661)"
         id="g74"><path
           id="path76"
           style="fill:#7c7c7c;fill-opacity:1;fill-rule:nonzero;stroke:none"
           d="m 16300,1057.49 h -2838.1 l 325.3,2710.96 v 0.07 l 35.8,298.54 h 2037.9 c 0,-16.88 19.3,-159.74 52.8,-394.15 v -0.07 c 76.2,-532.65 225.4,-1538.32 386.3,-2615.35" /></g><g
         transform="scale(1.65928)"
         id="g78"><path
           id="path80"
           style="fill:#f4f3f2;fill-opacity:1;fill-rule:nonzero;stroke:none"
           d="m 15120.8,7554.65 c 0,0 -25.6,-1384.15 -2025,-2383.86 L 14505.7,2351.14 16300,5657.81 15120.8,7554.65" /></g><g
         transform="scale(1.15045)"
         id="g82"><path
           id="path84"
           style="fill:#f4f3f2;fill-opacity:1;fill-rule:nonzero;stroke:none"
           d="m 16300,7457.75 -2107.3,-4066.74 -2698.9,5360.67 1848.5,1996.42 c 0,0 850.4,-2403.05 2957.7,-3290.35" /></g><g
         transform="scale(2.3841)"
         id="g86"><path
           id="path88"
           style="fill:#7c7c7c;fill-opacity:1;fill-rule:nonzero;stroke:none"
           d="M 16300,2044.5 V 601.738 h -6037.9 c 126.6,525.862 306.8,1333.792 427.5,2129.192 v 0.04 c 21.5,142.07 41.2,283.75 58.3,423.39 46.8,381.65 74.6,747.74 70.1,1063.92 -2.1,150.96 -11.6,290.47 -29.8,414.83 -14.3,98.07 -34.1,186.83 -60,264.26 -9.8,29.57 -20.5,57.42 -32.2,83.47 0,0.12 -0.1,0.25 -0.2,0.37 1,-0.58 6.9,-4.53 17.3,-11.66 48.9,-33.3 196.1,-135.56 379.8,-280.73 276.6,-218.95 635.8,-535.3 864.4,-859.36 4.3,-5.96 8.3,-11.87 12.3,-17.75 25.3,-36.61 48.9,-73.27 70.3,-109.93 1.3,-2.23 2.6,-4.45 3.9,-6.63 1.3,-2.31 2.7,-4.66 4,-6.96 3.5,-6.17 7,-12.12 10.3,-18.08 l 17.4,-7.05 2616.4,-665.11 c 629.1,-159.89 1183,-496.46 1608.1,-953.45" /></g><path
         id="path90"
         style="fill:#7c7c7c;fill-opacity:1;fill-rule:nonzero;stroke:none"
         d="M 16051.9,1434.6 H 1139.15 v 2786.7 c 1061.11,1407.4 2584.31,2447.5 4358.18,2898.4 l 6230.27,1583.6 7.5,1.9 41.6,17 c 7.8,14.2 16.1,28.3 24.5,43 56,98.3 118.8,196.6 186.5,294.6 9.5,13.9 18.9,28 29.2,42.2 545,772.7 1401.2,1526.8 2060.9,2048.7 186.9,147.8 358,276.9 501.7,382.6 190,139.7 332.4,238.2 400.5,284.7 1.1,0.8 2.2,1.4 3.2,2.2 24.7,16.9 38.9,26.3 41.1,27.7 -28,-62.4 -53.5,-129.1 -77.1,-199.9 -3.1,-9.3 -6.2,-18.8 -9.3,-28.3 -53.3,-166 -95.4,-353 -127.1,-557.6 -0.1,-0.2 -0.1,-0.3 -0.1,-0.5 -2.2,-14.4 -4.4,-28.9 -6.6,-43.6 -43.3,-296.4 -66,-629.1 -71,-988.9 -0.6,-39.4 -0.9,-79.1 -1,-119.2 -0.1,-23 -0.1,-46.1 0,-69.3 1.6,-701.5 64.4,-1495.2 164.7,-2320.3 42.9,-352.3 92.6,-710.2 147.4,-1069.1 285.5,-1872.1 707.8,-3769.5 1007.7,-5016.6" /><g
         transform="scale(1.84455)"
         id="g92"><path
           id="path94"
           style="fill:#a5a8a8;fill-opacity:1;fill-rule:nonzero;stroke:none"
           d="m 15468.2,962.188 206.3,-184.435 h -2410.6 c 163.6,679.677 396.5,1723.947 552.5,2752.007 v 0.05 c 27.9,183.62 53.3,366.76 75.4,547.24 60.5,493.29 96.4,966.47 90.6,1375.13 50,86.09 13.3,301.1 -38.5,536.18 -25,113.2 -53.6,231.22 -77.5,341.54 -4.7,21.09 -9.1,41.8 -13.3,62.13 v 0.06 c -2.2,10.46 -4.3,20.87 -6.3,31.12 63.2,-43.05 253.5,-175.22 490.9,-362.86 357.6,-282.99 821.8,-691.87 1117.3,-1110.73 5.6,-7.7 10.6,-15.34 15.8,-22.93 34.8,-51.4 65.4,-99.05 90.9,-142.1 1.7,-2.87 3.4,-5.74 5,-8.56 1.7,-2.98 3.5,-6.02 5.2,-9 4.5,-7.97 9.1,-15.67 13.3,-23.37 l 22.5,-9.11 c 335.4,-706.4 642.9,-1417.36 692.3,-1743.35 0,0 -343.2,-327.62 -831.8,-585.4 -374.3,-197.45 -833.8,-353.97 -1289.6,-290.81 L 15468.2,962.188" /></g><path
         id="path96"
         style="fill:#a5a8a8;fill-opacity:1;fill-rule:nonzero;stroke:none"
         d="m 15047.2,6445.1 c 286.5,-1872.5 709,-3768 1008,-5010.5 h -4427.8 l 1373.1,1227.3 1370.8,1225.4 c -464.1,-64.3 -930.3,-5.2 -1370.8,122 -1400,403.9 -2542.3,1494.1 -2542.3,1494.1 90.6,598.9 653.7,1902.2 1269.4,3199.9 2.5,5.3 5,10.5 7.5,15.8 l 41.6,17 c 7.8,14.1 16.1,28.3 24.5,43 50.4,87.8 113.5,186.6 186.5,294.6 9.5,13.8 18.9,28 29.2,42.2 545,772.7 1401.2,1526.7 2060.9,2048.7 204.5,161.7 390.1,301.1 541.7,411.9 172.9,126.3 301.6,215.2 363.7,257.6 -1,-5.4 -2.1,-10.7 -3.2,-16.1 -10.1,-50.7 -21,-102.9 -32.8,-156.1 -3,-14 -6.2,-28 -9.3,-42.2 -39.9,-181.3 -85.9,-372.5 -127.1,-557.6 -0.1,-0.2 -0.1,-0.3 -0.1,-0.5 -2.2,-9.9 -4.4,-19.8 -6.6,-29.7 -95.4,-433.7 -163.2,-830.2 -71,-989 -0.7,-43.9 -1,-88.2 -1,-133 -0.1,-23 -0.1,-46.1 0,-69.3 2.4,-701.8 65.8,-1495.6 166.4,-2320.3 43.3,-354.3 93.5,-714.4 148.7,-1075.2" /></g></g></svg>